<mxfile host="app.diagrams.net" modified="2022-11-26T10:10:38.235Z" agent="5.0 (Windows NT 10.0; Win64; x64) AppleWebKit/537.36 (KHTML, like Gecko) Chrome/105.0.0.0 Safari/537.36" etag="rG3pptnl5S6WfzaQ_jaM" version="20.6.0" type="github">
  <diagram id="C5RBs43oDa-KdzZeNtuy" name="Page-1">
    <mxGraphModel dx="1038" dy="483" grid="1" gridSize="10" guides="1" tooltips="1" connect="1" arrows="1" fold="1" page="1" pageScale="1" pageWidth="827" pageHeight="1169" math="0" shadow="0">
      <root>
        <mxCell id="WIyWlLk6GJQsqaUBKTNV-0" />
        <mxCell id="WIyWlLk6GJQsqaUBKTNV-1" parent="WIyWlLk6GJQsqaUBKTNV-0" />
        <mxCell id="WIyWlLk6GJQsqaUBKTNV-2" value="" style="rounded=0;html=1;jettySize=auto;orthogonalLoop=1;fontSize=11;endArrow=classic;endFill=1;endSize=8;strokeWidth=1;shadow=0;labelBackgroundColor=none;edgeStyle=orthogonalEdgeStyle;" parent="WIyWlLk6GJQsqaUBKTNV-1" source="WIyWlLk6GJQsqaUBKTNV-3" target="WIyWlLk6GJQsqaUBKTNV-6" edge="1">
          <mxGeometry relative="1" as="geometry" />
        </mxCell>
        <mxCell id="WIyWlLk6GJQsqaUBKTNV-3" value="&lt;pre style=&quot;background-color: rgb(255, 255, 255); font-family: Consolas, monospace; font-size: 10.5pt;&quot;&gt;AddEmployeeHR&lt;/pre&gt;" style="rounded=1;whiteSpace=wrap;html=1;fontSize=12;glass=0;strokeWidth=1;shadow=0;" parent="WIyWlLk6GJQsqaUBKTNV-1" vertex="1">
          <mxGeometry x="160" y="80" width="120" height="40" as="geometry" />
        </mxCell>
        <mxCell id="WIyWlLk6GJQsqaUBKTNV-4" value="Yes" style="rounded=0;html=1;jettySize=auto;orthogonalLoop=1;fontSize=11;endArrow=classic;endFill=1;endSize=8;strokeWidth=1;shadow=0;labelBackgroundColor=none;edgeStyle=orthogonalEdgeStyle;entryX=0.5;entryY=0;entryDx=0;entryDy=0;" parent="WIyWlLk6GJQsqaUBKTNV-1" source="WIyWlLk6GJQsqaUBKTNV-6" target="YJIiODXDsb-vTNP3Xylr-0" edge="1">
          <mxGeometry y="20" relative="1" as="geometry">
            <mxPoint as="offset" />
            <mxPoint x="220" y="260" as="targetPoint" />
          </mxGeometry>
        </mxCell>
        <mxCell id="WIyWlLk6GJQsqaUBKTNV-5" value="No" style="edgeStyle=orthogonalEdgeStyle;rounded=0;html=1;jettySize=auto;orthogonalLoop=1;fontSize=11;endArrow=block;endFill=0;endSize=8;strokeWidth=1;shadow=0;labelBackgroundColor=none;entryX=1;entryY=0.5;entryDx=0;entryDy=0;" parent="WIyWlLk6GJQsqaUBKTNV-1" source="WIyWlLk6GJQsqaUBKTNV-6" target="WIyWlLk6GJQsqaUBKTNV-11" edge="1">
          <mxGeometry y="10" relative="1" as="geometry">
            <mxPoint as="offset" />
            <mxPoint x="320" y="180" as="targetPoint" />
            <Array as="points">
              <mxPoint x="350" y="180" />
              <mxPoint x="350" y="420" />
            </Array>
          </mxGeometry>
        </mxCell>
        <mxCell id="WIyWlLk6GJQsqaUBKTNV-6" value="参数校验" style="rhombus;whiteSpace=wrap;html=1;shadow=0;fontFamily=Helvetica;fontSize=12;align=center;strokeWidth=1;spacing=6;spacingTop=-4;" parent="WIyWlLk6GJQsqaUBKTNV-1" vertex="1">
          <mxGeometry x="170" y="140" width="100" height="80" as="geometry" />
        </mxCell>
        <mxCell id="WIyWlLk6GJQsqaUBKTNV-8" value="No" style="rounded=0;html=1;jettySize=auto;orthogonalLoop=1;fontSize=11;endArrow=classic;endFill=1;endSize=8;strokeWidth=1;shadow=0;labelBackgroundColor=none;edgeStyle=orthogonalEdgeStyle;startArrow=none;" parent="WIyWlLk6GJQsqaUBKTNV-1" source="YJIiODXDsb-vTNP3Xylr-2" target="WIyWlLk6GJQsqaUBKTNV-11" edge="1">
          <mxGeometry x="0.3333" y="20" relative="1" as="geometry">
            <mxPoint as="offset" />
            <mxPoint x="220" y="340" as="sourcePoint" />
          </mxGeometry>
        </mxCell>
        <mxCell id="WIyWlLk6GJQsqaUBKTNV-11" value="结束" style="rounded=1;whiteSpace=wrap;html=1;fontSize=12;glass=0;strokeWidth=1;shadow=0;" parent="WIyWlLk6GJQsqaUBKTNV-1" vertex="1">
          <mxGeometry x="160" y="390" width="120" height="40" as="geometry" />
        </mxCell>
        <mxCell id="YJIiODXDsb-vTNP3Xylr-0" value="&lt;p style=&quot;line-height: 100%;&quot;&gt;异步添加人员&lt;/p&gt;&lt;p style=&quot;background-color: rgb(255, 255, 255); line-height: 10%;&quot;&gt;&lt;span style=&quot;color: rgb(116, 83, 31);&quot;&gt;&lt;font style=&quot;font-size: 12px;&quot;&gt;SendCalculateMessage&lt;/font&gt;&lt;/span&gt;&lt;/p&gt;" style="rounded=1;whiteSpace=wrap;html=1;fontSize=12;glass=0;strokeWidth=1;shadow=0;" vertex="1" parent="WIyWlLk6GJQsqaUBKTNV-1">
          <mxGeometry x="150" y="250" width="140" height="50" as="geometry" />
        </mxCell>
        <mxCell id="YJIiODXDsb-vTNP3Xylr-5" value="" style="rounded=0;html=1;jettySize=auto;orthogonalLoop=1;fontSize=11;endArrow=classic;endFill=1;endSize=8;strokeWidth=1;shadow=0;labelBackgroundColor=none;edgeStyle=orthogonalEdgeStyle;entryX=0.5;entryY=0;entryDx=0;entryDy=0;exitX=0.5;exitY=1;exitDx=0;exitDy=0;" edge="1" parent="WIyWlLk6GJQsqaUBKTNV-1" source="YJIiODXDsb-vTNP3Xylr-0" target="YJIiODXDsb-vTNP3Xylr-2">
          <mxGeometry y="20" relative="1" as="geometry">
            <mxPoint as="offset" />
            <mxPoint x="219.5" y="310" as="sourcePoint" />
            <mxPoint x="220" y="330" as="targetPoint" />
          </mxGeometry>
        </mxCell>
        <mxCell id="YJIiODXDsb-vTNP3Xylr-2" value="AddDetail" style="whiteSpace=wrap;html=1;rounded=1;glass=0;strokeWidth=1;shadow=0;fontFamily=Helvetica;fontSize=12;fillColor=#dae8fc;strokeColor=#6c8ebf;" vertex="1" parent="WIyWlLk6GJQsqaUBKTNV-1">
          <mxGeometry x="165" y="330" width="110" height="30" as="geometry" />
        </mxCell>
        <mxCell id="YJIiODXDsb-vTNP3Xylr-7" value="" style="endArrow=classic;html=1;fontFamily=Helvetica;fontSize=12;exitX=1;exitY=0.5;exitDx=0;exitDy=0;curved=1;dashed=1;fillColor=#dae8fc;strokeColor=#6c8ebf;entryX=0;entryY=0.5;entryDx=0;entryDy=0;" edge="1" parent="WIyWlLk6GJQsqaUBKTNV-1" source="YJIiODXDsb-vTNP3Xylr-2" target="YJIiODXDsb-vTNP3Xylr-8">
          <mxGeometry width="50" height="50" relative="1" as="geometry">
            <mxPoint x="390" y="270" as="sourcePoint" />
            <mxPoint x="440" y="100" as="targetPoint" />
            <Array as="points">
              <mxPoint x="350" y="180" />
            </Array>
          </mxGeometry>
        </mxCell>
        <mxCell id="YJIiODXDsb-vTNP3Xylr-18" style="edgeStyle=orthogonalEdgeStyle;rounded=0;orthogonalLoop=1;jettySize=auto;html=1;exitX=0.5;exitY=1;exitDx=0;exitDy=0;entryX=0.465;entryY=0.045;entryDx=0;entryDy=0;entryPerimeter=0;fontFamily=Helvetica;fontSize=12;endArrow=classic;endFill=1;" edge="1" parent="WIyWlLk6GJQsqaUBKTNV-1" source="YJIiODXDsb-vTNP3Xylr-8" target="YJIiODXDsb-vTNP3Xylr-17">
          <mxGeometry relative="1" as="geometry" />
        </mxCell>
        <mxCell id="YJIiODXDsb-vTNP3Xylr-8" value="&lt;p style=&quot;line-height: 80%;&quot;&gt;&lt;/p&gt;&lt;pre style=&quot;background-color: rgb(255, 255, 255); font-family: Consolas, monospace; font-size: 10.5pt; line-height: 120%;&quot;&gt;GetExistDetail&lt;/pre&gt;&lt;pre style=&quot;background-color: rgb(255, 255, 255); font-family: Consolas, monospace; font-size: 10.5pt; line-height: 120%;&quot;&gt;&lt;pre style=&quot;font-family: Consolas, monospace; font-size: 10.5pt; line-height: 2.8px;&quot;&gt;根据传入的人员ID&lt;/pre&gt;&lt;pre style=&quot;font-family: Consolas, monospace; font-size: 10.5pt; line-height: 2.8px;&quot;&gt;获取活动中已存在的明细&lt;/pre&gt;&lt;/pre&gt;&lt;p&gt;&lt;/p&gt;" style="rounded=1;whiteSpace=wrap;html=1;fontSize=12;glass=0;strokeWidth=1;shadow=0;fillColor=#dae8fc;strokeColor=#6c8ebf;" vertex="1" parent="WIyWlLk6GJQsqaUBKTNV-1">
          <mxGeometry x="430" y="65" width="190" height="70" as="geometry" />
        </mxCell>
        <mxCell id="YJIiODXDsb-vTNP3Xylr-17" value="&lt;pre style=&quot;background-color: rgb(255, 255, 255); font-family: Consolas, monospace; font-size: 10.5pt;&quot;&gt;&lt;span style=&quot;color: rgb(31, 55, 127);&quot;&gt;staffIds&lt;/span&gt;.&lt;span style=&quot;color: rgb(116, 83, 31);&quot;&gt;Except&lt;/span&gt;(&lt;span style=&quot;color: rgb(31, 55, 127);&quot;&gt;existStaffIds&lt;/span&gt;).&lt;span style=&quot;color: rgb(116, 83, 31);&quot;&gt;ToList&lt;/span&gt;();&lt;/pre&gt;" style="rounded=0;whiteSpace=wrap;html=1;glass=0;fontFamily=Helvetica;fontSize=12;" vertex="1" parent="WIyWlLk6GJQsqaUBKTNV-1">
          <mxGeometry x="372.5" y="160" width="325" height="40" as="geometry" />
        </mxCell>
      </root>
    </mxGraphModel>
  </diagram>
</mxfile>
